<svg width="31" height="32" viewBox="0 0 31 32" fill="none" xmlns="http://www.w3.org/2000/svg">
<path d="M15.4999 15.1389C16.6921 15.1389 17.8575 14.7854 18.8488 14.1231C19.8401 13.4607 20.6127 12.5193 21.0689 11.4179C21.5251 10.3165 21.6445 9.10447 21.4119 7.93519C21.1793 6.76592 20.6052 5.69187 19.7622 4.84887C18.9192 4.00587 17.8452 3.43178 16.6759 3.1992C15.5066 2.96662 14.2946 3.08599 13.1932 3.54221C12.0918 3.99844 11.1504 4.77104 10.488 5.7623C9.82569 6.75356 9.47217 7.91897 9.47217 9.11115C9.47217 10.7098 10.1072 12.243 11.2377 13.3734C12.3681 14.5039 13.9013 15.1389 15.4999 15.1389ZM15.4999 4.8056C16.3515 4.8056 17.1839 5.05812 17.892 5.53122C18.6 6.00432 19.1519 6.67675 19.4778 7.46349C19.8036 8.25023 19.8889 9.11593 19.7228 9.95113C19.5566 10.7863 19.1466 11.5535 18.5444 12.1556C17.9423 12.7578 17.1751 13.1678 16.3399 13.334C15.5047 13.5001 14.639 13.4148 13.8523 13.089C13.0655 12.7631 12.3931 12.2112 11.92 11.5032C11.4469 10.7951 11.1944 9.96271 11.1944 9.11115C11.1944 7.96925 11.648 6.87412 12.4555 6.06667C13.2629 5.25922 14.358 4.8056 15.4999 4.8056Z" fill="#211F20"/>
<path d="M26.238 21.4853C24.8571 20.0257 23.193 18.8631 21.3474 18.0686C19.5018 17.2741 17.5136 16.8643 15.5043 16.8643C13.495 16.8643 11.5067 17.2741 9.66119 18.0686C7.81563 18.8631 6.1515 20.0257 4.77054 21.4853C4.47115 21.8051 4.30486 22.227 4.30554 22.665V27.1945C4.30554 27.6512 4.48699 28.0893 4.80997 28.4123C5.13295 28.7353 5.571 28.9167 6.02777 28.9167H24.9722C25.429 28.9167 25.867 28.7353 26.19 28.4123C26.513 28.0893 26.6944 27.6512 26.6944 27.1945V22.665C26.6975 22.2281 26.5343 21.8064 26.238 21.4853ZM24.9722 27.1945H6.02777V22.6564C7.24816 21.3714 8.71727 20.3481 10.3457 19.6488C11.9741 18.9495 13.7278 18.5889 15.5 18.5889C17.2722 18.5889 19.0259 18.9495 20.6543 19.6488C22.2827 20.3481 23.7518 21.3714 24.9722 22.6564V27.1945Z" fill="#211F20"/>
</svg>
