<svg width="36" height="36" viewBox="0 0 36 36" fill="none" xmlns="http://www.w3.org/2000/svg">
<path d="M29.2275 30.2309L19.8345 20.8379C19.0845 21.4769 18.222 21.9714 17.247 22.3214C16.272 22.6714 15.292 22.8464 14.307 22.8464C11.905 22.8464 9.87204 22.0149 8.20804 20.3519C6.54404 18.6889 5.71204 16.6564 5.71204 14.2544C5.71204 11.8524 6.54304 9.81895 8.20504 8.15395C9.86704 6.48895 11.899 5.65545 14.301 5.65345C16.703 5.65145 18.737 6.48345 20.403 8.14945C22.069 9.81545 22.902 11.8489 22.902 14.2499C22.902 15.2919 22.7175 16.3004 22.3485 17.2754C21.9795 18.2504 21.4945 19.0844 20.8935 19.7774L30.2865 29.1689L29.2275 30.2309ZM14.3085 21.3449C16.2985 21.3449 17.9785 20.6599 19.3485 19.2899C20.7185 17.9199 21.4035 16.2394 21.4035 14.2484C21.4035 12.2574 20.7185 10.5774 19.3485 9.20845C17.9785 7.83945 16.2985 7.15445 14.3085 7.15345C12.3185 7.15245 10.638 7.83745 9.26704 9.20845C7.89604 10.5794 7.21104 12.2594 7.21204 14.2484C7.21304 16.2374 7.89804 17.9174 9.26704 19.2884C10.636 20.6594 12.316 21.3444 14.307 21.3434" fill="black"/>
</svg>
