<svg width="22" height="22" viewBox="0 0 22 22" fill="none" xmlns="http://www.w3.org/2000/svg">
<path d="M21.7912 10.1217L20.588 7.11391C20.4994 6.89016 20.3454 6.69832 20.1461 6.56342C19.9468 6.42852 19.7115 6.35681 19.4709 6.35766H16.3281V5.5C16.3281 5.36325 16.2738 5.2321 16.1771 5.1354C16.0804 5.0387 15.9493 4.98438 15.8125 4.98438H2.75C2.43091 4.98438 2.12489 5.11113 1.89926 5.33676C1.67363 5.56239 1.54688 5.86841 1.54688 6.1875V15.8125C1.54688 16.1316 1.67363 16.4376 1.89926 16.6632C2.12489 16.8889 2.43091 17.0156 2.75 17.0156H4.34844C4.46678 17.5984 4.78297 18.1224 5.24343 18.4988C5.70389 18.8751 6.2803 19.0807 6.875 19.0807C7.4697 19.0807 8.04611 18.8751 8.50657 18.4988C8.96703 18.1224 9.28322 17.5984 9.40156 17.0156H13.9734C14.0918 17.5984 14.408 18.1224 14.8684 18.4988C15.3289 18.8751 15.9053 19.0807 16.5 19.0807C17.0947 19.0807 17.6711 18.8751 18.1316 18.4988C18.592 18.1224 18.9082 17.5984 19.0266 17.0156H20.625C20.9441 17.0156 21.2501 16.8889 21.4757 16.6632C21.7014 16.4376 21.8281 16.1316 21.8281 15.8125V10.3125C21.828 10.2471 21.8155 10.1824 21.7912 10.1217ZM16.3281 7.39062H19.4717C19.5061 7.39059 19.5398 7.4009 19.5683 7.4202C19.5968 7.43951 19.6188 7.46693 19.6316 7.49891L20.5511 9.79687H16.3281V7.39062ZM2.57812 6.1875C2.57812 6.14192 2.59623 6.0982 2.62847 6.06597C2.6607 6.03373 2.70442 6.01562 2.75 6.01562H15.2969V11.8594H2.57812V6.1875ZM6.875 18.0469C6.56906 18.0469 6.26998 17.9562 6.0156 17.7862C5.76122 17.6162 5.56295 17.3746 5.44587 17.092C5.32879 16.8093 5.29816 16.4983 5.35785 16.1982C5.41753 15.8982 5.56486 15.6225 5.78119 15.4062C5.99753 15.1899 6.27316 15.0425 6.57322 14.9828C6.87328 14.9232 7.18431 14.9538 7.46696 15.0709C7.74962 15.188 7.99121 15.3862 8.16118 15.6406C8.33115 15.895 8.42188 16.1941 8.42188 16.5C8.42188 16.9103 8.2589 17.3037 7.96881 17.5938C7.67871 17.8839 7.28526 18.0469 6.875 18.0469ZM13.9734 15.9844H9.40156C9.28322 15.4016 8.96703 14.8776 8.50657 14.5012C8.04611 14.1249 7.4697 13.9193 6.875 13.9193C6.2803 13.9193 5.70389 14.1249 5.24343 14.5012C4.78297 14.8776 4.46678 15.4016 4.34844 15.9844H2.75C2.70442 15.9844 2.6607 15.9663 2.62847 15.934C2.59623 15.9018 2.57812 15.8581 2.57812 15.8125V12.8906H15.2969V14.2209C14.96 14.3992 14.6667 14.6497 14.4379 14.9546C14.2091 15.2594 14.0505 15.6111 13.9734 15.9844ZM16.5 18.0469C16.1941 18.0469 15.895 17.9562 15.6406 17.7862C15.3862 17.6162 15.188 17.3746 15.0709 17.092C14.9538 16.8093 14.9232 16.4983 14.9828 16.1982C15.0425 15.8982 15.1899 15.6225 15.4062 15.4062C15.6225 15.1899 15.8982 15.0425 16.1982 14.9828C16.4983 14.9232 16.8093 14.9538 17.092 15.0709C17.3746 15.188 17.6162 15.3862 17.7862 15.6406C17.9562 15.895 18.0469 16.1941 18.0469 16.5C18.0469 16.9103 17.8839 17.3037 17.5938 17.5938C17.3037 17.8839 16.9103 18.0469 16.5 18.0469ZM20.7969 15.8125C20.7969 15.8581 20.7788 15.9018 20.7465 15.934C20.7143 15.9663 20.6706 15.9844 20.625 15.9844H19.0266C18.9069 15.4024 18.5903 14.8795 18.1301 14.5038C17.6698 14.1281 17.0941 13.9226 16.5 13.9219C16.4424 13.9219 16.3848 13.9219 16.3281 13.9279V10.8281H20.7969V15.8125Z" fill="white"/>
</svg>
