<svg width="20" height="20" viewBox="0 0 20 20" fill="none" xmlns="http://www.w3.org/2000/svg">
<path d="M10 4.58333L9.55 5.01667C9.6083 5.07716 9.6782 5.12527 9.75552 5.15813C9.83283 5.191 9.91598 5.20793 10 5.20793C10.084 5.20793 10.1672 5.191 10.2445 5.15813C10.3218 5.12527 10.3917 5.07716 10.45 5.01667L10 4.58333ZM7.855 15.2683C6.59166 14.2725 5.21083 13.3 4.115 12.0667C3.04166 10.8567 2.29166 9.44583 2.29166 7.61417H1.04166C1.04166 9.83583 1.96666 11.5308 3.18083 12.8967C4.3725 14.2383 5.8925 15.3133 7.08083 16.25L7.855 15.2683ZM2.29166 7.61417C2.29166 5.8225 3.30416 4.31917 4.68666 3.68667C6.03 3.0725 7.835 3.235 9.55 5.01667L10.45 4.15083C8.41666 2.03667 6.05333 1.6875 4.16666 2.55C2.32166 3.39417 1.04166 5.35417 1.04166 7.61417H2.29166ZM7.08083 16.25C7.50833 16.5867 7.96666 16.945 8.43083 17.2167C8.895 17.4883 9.425 17.7083 10 17.7083V16.4583C9.74166 16.4583 9.43833 16.3583 9.06166 16.1375C8.68416 15.9175 8.29333 15.6142 7.855 15.2683L7.08083 16.25ZM12.9192 16.25C14.1075 15.3125 15.6275 14.2392 16.8192 12.8967C18.0333 11.53 18.9583 9.83583 18.9583 7.61417H17.7083C17.7083 9.44583 16.9583 10.8567 15.885 12.0667C14.7892 13.3 13.4083 14.2725 12.145 15.2683L12.9192 16.25ZM18.9583 7.61417C18.9583 5.35417 17.6792 3.39417 15.8333 2.55C13.9467 1.6875 11.585 2.03667 9.55 4.15L10.45 5.01667C12.165 3.23583 13.97 3.0725 15.3133 3.68667C16.6958 4.31917 17.7083 5.82167 17.7083 7.61417H18.9583ZM12.145 15.2683C11.7067 15.6142 11.3158 15.9175 10.9383 16.1375C10.5608 16.3575 10.2583 16.4583 10 16.4583V17.7083C10.575 17.7083 11.105 17.4875 11.5692 17.2167C12.0342 16.945 12.4917 16.5867 12.9192 16.25L12.145 15.2683Z" fill="white"/>
</svg>
