<svg xmlns="http://www.w3.org/2000/svg" width="179" height="32" fill="none"><path fill="#222822" d="M1.938 21.27h1.449v-5.466H5.32v-1.31H0v1.31h1.938v5.466ZM8.805 18.51h2.901v2.76h1.452v-6.776h-1.452v2.712h-2.9v-2.712H7.351v6.776h1.453v-2.76ZM20.948 19.966h-3.629v-1.503h2.753V17.16H17.32v-1.355h3.528v-1.31h-4.984v6.776h5.085v-1.304ZM154.17 19.093a1.548 1.548 0 0 1-.246.246 3.588 3.588 0 0 1-.392.28 2.345 2.345 0 0 1-.561.242c-.225.069-.46.1-.706.1-.634 0-1.163-.211-1.589-.637-.426-.426-.638-.955-.638-1.589 0-.633.212-1.162.638-1.588.426-.426.955-.638 1.589-.638.229 0 .456.036.676.107.221.07.398.148.533.231.135.084.262.18.375.291.116.11.188.188.223.233.032.045.06.082.077.108l.92-.921-.109-.141a2.214 2.214 0 0 0-.342-.336 5.301 5.301 0 0 0-.548-.396 3.054 3.054 0 0 0-.793-.339 3.665 3.665 0 0 0-1.017-.139c-1.034 0-1.905.345-2.616 1.034-.71.69-1.066 1.522-1.066 2.494 0 .972.356 1.805 1.066 2.497.711.691 1.582 1.036 2.616 1.036.354 0 .694-.05 1.024-.146.33-.098.595-.205.798-.323a3.57 3.57 0 0 0 .572-.411 4.31 4.31 0 0 0 .345-.326c.051-.062.09-.11.115-.15l-.873-.92-.075.098.004.003ZM159.186 14.348h-1.456v6.776h4.597v-1.306h-3.141v-5.47ZM168.906 18.365c0 .454-.146.833-.439 1.139a1.415 1.415 0 0 1-1.058.458 1.42 1.42 0 0 1-1.06-.46c-.295-.307-.441-.686-.441-1.137v-4.017h-1.449v4.017c0 .824.28 1.516.841 2.072.561.557 1.263.835 2.109.835.846 0 1.55-.278 2.109-.835.561-.556.841-1.246.841-2.072v-4.017h-1.451v4.017h-.002ZM178.486 18.076a2.162 2.162 0 0 0-.34-.304 2.395 2.395 0 0 0-.268-.176c-.049-.023-.09-.04-.12-.053l.081-.047c.052-.033.114-.086.191-.163.077-.077.156-.17.233-.276a1.34 1.34 0 0 0 .195-.405c.052-.163.075-.334.075-.512 0-.475-.201-.892-.602-1.252-.402-.36-.909-.54-1.524-.54h-2.905v6.776h3.072c.67 0 1.223-.194 1.653-.586.432-.39.646-.857.646-1.398 0-.219-.04-.422-.119-.613-.08-.19-.17-.34-.268-.451Zm-3.53-2.518h1.351c.239 0 .428.066.567.2a.696.696 0 0 1 .208.528c0 .22-.069.396-.208.529-.139.132-.328.199-.567.199h-1.351v-1.456Zm2.205 4.106a.918.918 0 0 1-.66.25h-1.545v-1.742h1.545a.91.91 0 0 1 .66.253c.175.169.261.374.261.62a.826.826 0 0 1-.261.62ZM82.064 28.474c-.024-.27-.111-.394-.651-.248-.426.115-.794-.195-1.068-.696-.27-.49-.463-1.094-.482-1.589-.038-.97.01-1.929.13-2.843.133-1.004.324-1.993.607-2.914.214-.7.372-.888-.302-1.659-.037-.04-.028-.056-.208-.205-.165-.137-.094-.264.051-.352.658-.398 1-.967 1.358-1.637.29-.548.158-1.193-.369-1.814-.957-1.13-2.104-1.672-3.282-2.006-1.34-.379-2.406.028-3.359.628-1.834 1.156-3.05 2.965-3.984 5.026-.965 2.135-1.54 4.498-1.421 7.21.03.716.117 1.427.492 2.14.53 1.012 1.394 1.573 2.27 2.034.836.44 1.562.46 2.147-.122 1.12-1.116 1.858-2.559 2.582-4.025.244-.495.445-1.022.712-1.642.056.635.084 1.13.148 1.629.058.45.105.908.244 1.357.302.972.95 1.728 1.756 2.295.46.326.961.478 1.398.516.462.04.777-.092.976-.165.283-.105.278-.65.255-.92v.002ZM79.54 17.596c-.005.124-.122.186-.247.13-.143-.066-.276-.128-.36-.154-.348-.104-.582-.062-.71.304-.497 1.422-.976 2.858-1.567 4.211-.833 1.904-1.79 3.715-3.079 5.229a3.049 3.049 0 0 1-.755.618c-.388.234-.726.037-.812-.518a9.306 9.306 0 0 1-.107-1.95c.13-2.124.71-4.006 1.34-5.86.394-1.16.919-2.216 1.64-3.098.865-1.055 1.79-2.048 3.128-2.498.026-.009.045-.028.07-.03.857-.116 1.457.062 1.448 1.302-.004.749.032 1.537.009 2.314h.002ZM98.172 28.31c-.099-.324-.276-.57-.585-.45-.09.036-.366.15-.46.186-.77.3-1.182.171-1.453-.876-.27-1.043-.14-1.955-.071-2.882.088-1.205.35-2.346.512-3.52.181-1.316.451-2.594.667-3.898.17-1.017-.295-2.186-1.143-2.75-1.027-.686-2.485-.722-3.196-.056-1.375 1.286-2.3 2.988-3.181 4.716-.626 1.225-1.658 3.635-2.227 4.986-.051.124-.257.02-.233-.12.244-1.558.674-4.31.768-5.052.124-.985.231-1.98.304-2.989.045-.606-.197-1.019-.766-1.362a3.057 3.057 0 0 0-.889-.368c-.556-.122-.67.064-.68.724-.007.445-.026.89-.071 1.325a38.48 38.48 0 0 1-.285 2.31c-.13.803-1.364 8.7-1.398 9.047-.04.403.013.803.364 1.208.636.736 2.308 1.043 2.781.488.039-.047.058-.118.08-.18.243-.747.453-1.52.738-2.24a104.234 104.234 0 0 1 1.777-4.223c.488-1.086.991-2.167 1.578-3.17.606-1.037 1.301-1.996 1.997-2.951.201-.276.48-.537.994-.355.008.169.04.33.017.464-.2 1.203-.382 2.413-.621 3.597-.338 1.678-.625 3.37-.585 5.215.03 1.37.45 2.835 1.743 3.824.927.71 1.642.828 2.503.734.402-.045.886-.297.997-.372.334-.227.12-.688.022-1.009l.002-.002ZM124.801 26.53l-.013-.013c-.22-.235-.541-.272-.698-.073-.102.131-.207.26-.316.384-.741.85-1.602 1.511-2.882 1.562-1.178.047-2.246-1.136-2.55-2.224a11.699 11.699 0 0 1-.362-2.066c-.047-.503.024-.968.555-1.062.24-.043.432-.214.629-.353 1.128-.794 2.263-1.582 3.374-2.398a7.938 7.938 0 0 0 2.24-2.513c.325-.576.528-1.687.109-2.488a5.735 5.735 0 0 0-3.079-2.727c-1.374-.527-2.757-.011-3.656.954-.84.902-1.523 1.936-1.97 3.162-.392 1.073-.645 2.242-.927 3.385-.197.795-.182 1.685-.587 2.387-.867 1.505-1.614 3.113-2.457 4.64-.225.404-.587.712-.947.98-.396.298-.856.02-1.023-.597-.163-.604-.366-1.233-.383-1.805-.05-1.612-.06-3.216.006-4.791.054-1.263.21-2.494.375-3.715.205-1.526.445-3.04.708-4.538.272-1.548.561-3.09.891-4.608.353-1.62.766-3.207 1.141-4.815.039-.164.056-.428-.038-.558-.101-.14-.356-.232-.525-.249a4.145 4.145 0 0 0-1.006.015c-.668.105-1.285.32-1.458 1.082-.428 1.877-.867 3.748-1.238 5.658-.336 1.745-.586 3.534-.858 5.2-.85-.347-1.644-.734-2.439-.982-1.273-.399-2.337-.195-3.155.59-1.336 1.283-1.981 3.156-2.486 5.03-.556 2.057-.878 4.037-.68 6.362.121 1.439.517 2.708 1.967 3.603 1.126.696 2.378.786 2.967.073.874-1.055 1.522-2.295 2.113-3.588.242-.531.473-1.069.76-1.72.056.318.103.489.112.652.055.942.226 1.896.665 2.84.604 1.294 1.597 2.021 2.76 2.36 1.006.293 1.98.272 2.516-.465.71-.972 1.243-2.115 1.841-3.196.205-.375.372-.782.565-1.193.047.071.073.097.081.125.041.145.073.289.116.434.287.991.824 1.858 1.582 2.61 1.192 1.182 2.488 1.8 3.884 2.036 1.329.225 2.382-.09 3.262-.859.287-.25.908-.967 1.148-1.263.36-.44-.141-.74-.636-1.27l.002.005Zm-6.226-6.605c.433-1.545 1-3 1.824-4.256a5.043 5.043 0 0 1 1.054-1.152c.225-.182.636-.28.931.114.214.285.368.75.349 1.057-.06.897-.475 1.574-.94 2.182a24.276 24.276 0 0 1-1.734 2.047c-.533.556-1.137 1.034-1.708 1.545l-.142-.085c.122-.486.234-.976.366-1.454v.002Zm-11.017-3.905c-.257 1.34-.409 2.74-.775 4.015-.344 1.2-.877 2.29-1.383 3.389-.389.85-.815 1.676-1.308 2.438-.424.655-.952 1.218-1.466 1.788-.097.107-.411.139-.508.045-.171-.167-.353-.489-.351-.688.013-1.224.015-2.46.135-3.643a22.776 22.776 0 0 1 1.242-5.492c.396-1.096.783-2.207 1.685-2.867.205-.15.466-.222.702-.331.604.006 1.154.323 1.7.65.287.172.385.397.327.694v.002ZM140.087 18.103a.547.547 0 0 0-.259-.26.36.36 0 0 0-.317-.01 9.488 9.488 0 0 1-1.09.495c-.413.165-.841.334-1.286.383-.446.05-.891-.07-1.255-.338-.357-.263-.623-.657-.771-1.139a28.155 28.155 0 0 1-.456-1.64c-.102-.43-.167-.865-.216-1.233l-.019-.163c-.041-.44-.443-.858-.88-.929-.319-.051-.664-.109-1.004-.175-.233-.045-.306.06-.347.244-.201.895-1.978 8.829-2.605 11.541-.011.045-.047.05-.08.039a.097.097 0 0 1-.066-.09c-.009-.582-.047-1.574-.066-2.105a16.108 16.108 0 0 1-.011-.325l-.009-.647c-.002-.293-.004-.597-.012-.899l-.024-.567a34.152 34.152 0 0 1-.047-1.494c.004-.266-.114-.486-.323-.606a2.278 2.278 0 0 1-.358-.283 2.725 2.725 0 0 0-.449-.347c-.159-.087-.328-.1-.461-.032-.132.069-.207.206-.201.375l.073 2.584c.034 1.3.068 2.526.077 2.695.017.294.03.589.043.882.019.444.038.9.07 1.351.043.619.099 1.248.15 1.856.026.302.054.606.077.908l.017.201c.028.345.296.808.6 1.028a2.05 2.05 0 0 0 1.289.409h.06c.152 0 .261.002.31-.214a61.33 61.33 0 0 1 .377-1.544l.145-.576 2.032-8.154c.088-.35.317-1.268.467-1.86.017-.072.079-.089.128-.08a.192.192 0 0 1 .148.128l.116.313c.075.203.126.338.171.467.238.653.428.935.925 1.374.779.69 1.704.95 2.828.799.655-.09 1.835-.523 2.567-.848.595-.265.282-.784-.058-1.514Z"/><path fill="#222822" d="M92.08 2.096c-7.227-4.847-16.699-.146-22.222 2.676-1.963.955-4.293 2.229-6.763 2.869-1.469-2.272-3.284-4.211-5.29-4.93-1.116-.401-2.353-.279-3.088.413-1.186 1.01-1.24 3.21.073 4.782 1.167 1.456 3.025 2.115 4.483 2.287 1.05.128 2.058.122 3.03.017.875 1.693 1.554 3.472 1.97 5.155 1.005 3.854.43 7.528-1.148 10.486-.002-.002-.007-.004-.009-.008-.03.058-.06.117-.092.175-1.526 2.805-3.286 3.325-4.474 3.47-1.16.144-2.094-.12-2.94-.823-1.036-.866-1.676-2.06-2.014-3.758a18.63 18.63 0 0 1-.351-4.22c.01-.319.015-.638.017-.957.008-.676.017-1.374.09-2.048.137-1.266.325-2.54.509-3.77l.022-.146c.094-.632-.317-1.372-.955-1.72l-.482-.262c-.49-.268-1.008-.168-1.229.241L45.589 22.43c-.075.137-.24.165-.4.067-.161-.097-.245-.272-.204-.429.655-2.537 2.02-7.814 2.38-9.923.208-1.216.369-2.528.153-3.896-.386-2.43-2.028-4.346-4.254-5.333-1.506-.666-3.184-.908-4.824-.788-4.07.298-8.077 2.869-8.264 7.754-.094 2.492 1.328 4.974 3.451 6.333 1.694 1.083 3.974 1.263 5.753.377a.34.34 0 0 0 .154-.456l-.454-.903a.34.34 0 0 0-.346-.183c-2.308.279-4.676-.539-5.74-2.78-.85-1.788-.724-4.088.366-5.751 1.1-1.68 3.034-2.672 4.98-2.982a8.451 8.451 0 0 1 2.205-.064c.246.025.492.064.734.117 1.818.39 3.263 1.627 3.69 3.469.763 3.284-.47 6.79-1.202 9.965-.621 2.696-1.253 5.387-1.893 8.078l-.257 1.079c-.22.923-.488 1.848-.75 2.74l-.087.306c-.143.495.152 1.116.675 1.416l.638.366c.481.278 1.016.186 1.243-.212l6.973-12.195c.12-.21.364-.21.55-.115.223.111.369.34.364.567-.038 1.426-.05 2.453-.036 3.057.039 1.565.17 3.413.837 5.256.76 2.098 2.15 3.533 4.126 4.265 1.008.374 1.96.462 2.832.265.148-.034.296-.064.445-.096.591-.126 1.204-.255 1.726-.518.62-.313 1.199-.7 1.736-1.158a.888.888 0 0 1 .009.008c.344-.272.627-.565.92-.88 3.04-3.367 4.094-8.655 2.709-13.937-.403-1.54-1.152-3.526-2.165-5.479 2.467-.614 4.725-1.76 6.924-2.785 5.174-2.496 15.733-8.045 21.92-1.505a13.458 13.458 0 0 1 2.634 4.108c.073.18.25.298.445.287l.807-.045a.395.395 0 0 0 .353-.513c-.903-2.82-2.815-5.558-5.369-7.286l.004-.002Zm-35.213 5.31c-1.336-.592-1.786-2.122-.923-2.9.987-.832 2.49.251 3.464 1.369.572.659 1.11 1.374 1.606 2.128-1.373.115-2.766-.032-4.147-.598Z"/></svg>